<?xml version="1.0" encoding="UTF-8"?>
<svg id="Layer_1" data-name="Layer 1" xmlns="http://www.w3.org/2000/svg" viewBox="0 0 28.46 29.16">
  <defs>
    <style>
      .cls-1 {
        fill: #f58832;
      }
    </style>
  </defs>
  <path class="cls-1" d="M14.6,3.94c2.2,0,4.22.04,4.22-1.65S16.89,0,14.73,0s-4.39.53-4.39,2,1.97,1.93,4.26,1.93Z"/>
  <path class="cls-1" d="M15.71,24.47c0-2.42.04-4.65-1.65-4.65s-2.29,2.12-2.29,4.5.53,4.83,2,4.84,1.93-2.17,1.94-4.69Z"/>
  <path class="cls-1" d="M13.97,22.07c6.11.01,11.71.06,11.72-1.72s-5.36-2.41-11.36-2.42c-6-.01-12.19.55-12.19,2.1s5.48,2.04,11.83,2.05Z"/>
  <path class="cls-1" d="M2.89,8.69c1.84,1.2,3.51,2.33,4.44.92.92-1.42-.37-2.97-2.18-4.15-1.81-1.18-3.97-1.95-4.77-.72-.8,1.23.6,2.69,2.51,3.94Z"/>
  <path class="cls-1" d="M25.7,8.73c-1.85,1.2-3.52,2.32-4.44.9-.92-1.42.38-2.97,2.19-4.14,1.81-1.17,3.98-1.93,4.77-.7.8,1.24-.61,2.69-2.53,3.93Z"/>
  <path class="cls-1" d="M2.76,12.33c1.85-1.2,3.52-2.32,4.44-.9.92,1.42-.38,2.96-2.19,4.14-1.81,1.17-3.98,1.93-4.77.7-.8-1.24.61-2.69,2.53-3.93Z"/>
  <path class="cls-1" d="M25.57,12.37c-1.84-1.2-3.51-2.33-4.44-.92-.92,1.41.37,2.97,2.18,4.15,1.81,1.18,3.97,1.95,4.77.72.8-1.23-.6-2.69-2.51-3.94Z"/>
  <path class="cls-1" d="M5.74,23.85c1.85-1.2,3.52-2.32,4.44-.9.92,1.42-.38,2.96-2.19,4.14-1.81,1.17-3.97,1.93-4.77.7-.8-1.24.61-2.69,2.53-3.93Z"/>
  <path class="cls-1" d="M21.78,23.88c-1.84-1.2-3.51-2.33-4.44-.92-.92,1.42.37,2.97,2.18,4.15,1.81,1.18,3.97,1.95,4.77.72.8-1.23-.6-2.69-2.52-3.94Z"/>
  <path class="cls-1" d="M14.16,4.26c4.44,0,6.06,3.39,6.05,6.66s-1.8,6.2-6.9,6.19-4.99-3.07-4.98-6.41c0-3.47,1.39-6.46,5.83-6.45ZM14.03,9.99c1.5,0,2.88.03,2.88-1.37s-1.32-1.89-2.79-1.89-2.99.44-3,1.66,1.34,1.6,2.9,1.6ZM14.04,11.57c-1.57,0-3-.04-3,1.43s1.37,1.98,2.91,1.98,3.12-.46,3.13-1.73-1.4-1.67-3.03-1.67Z"/>
</svg>